<?xml version="1.0" encoding="UTF-8"?>
<svg width="18px" height="18px" viewBox="0 0 18 18" version="1.1" xmlns="http://www.w3.org/2000/svg" xmlns:xlink="http://www.w3.org/1999/xlink">
    <!-- Generator: Sketch 58 (84663) - https://sketch.com -->
    <title>Icon/System/Cross Copy</title>
    <desc>Created with Sketch.</desc>
    <g id="Page-1" stroke="none" stroke-width="1" fill="none" fill-rule="evenodd">
        <g id="sample-SDK-Copy" transform="translate(-1284.000000, -26.000000)" fill-rule="nonzero">
            <g id="Group-2">
                <g id="Stacked-Group" transform="translate(1273.000000, 15.000000)">
                    <g id="🤗-Icons-and-Labels/01:-Regular/Icon/01:-Rest">
                        <rect id="Background" x="0" y="0" width="40" height="40" rx="20"></rect>
                        <g id="Icon/System/Settings" opacity="0.6" transform="translate(6.000000, 6.000000)" fill="#FFFFFF">
                            <path d="M9.82639056,7.36271742 C10.5631985,6.89843571 11.3827419,6.55344989 12.25792,6.35487751 L12.25792,6.31611836 C12.25792,5.74918796 12.7134131,5.28960006 13.2844383,5.28960006 L14.7155617,5.28960006 C15.2824921,5.28960006 15.74208,5.74509313 15.74208,6.31611836 L15.74208,6.35491645 C16.6171929,6.55350859 17.4367102,6.89851333 18.173514,7.36281284 L18.2014882,7.33483861 C18.6023686,6.93395828 19.2494285,6.93106281 19.6532043,7.33483861 L20.6651614,8.34679566 C21.0660417,8.74767599 21.0689372,9.39473595 20.6651614,9.79851176 L20.6371872,9.82648598 C21.1014867,10.5632898 21.4464914,11.3828071 21.6450836,12.25792 L21.6838816,12.25792 C22.250812,12.25792 22.7103999,12.7134131 22.7103999,13.2844383 L22.7103999,14.7155617 C22.7103999,15.2824921 22.2549069,15.74208 21.6838816,15.74208 L21.6450836,15.74208 C21.4464914,16.6171929 21.1014867,17.4367102 20.6371872,18.173514 L20.6651614,18.2014882 C21.0660417,18.6023686 21.0689372,19.2494285 20.6651614,19.6532043 L19.6532043,20.6651614 C19.252324,21.0660417 18.6052641,21.0689372 18.2014882,20.6651614 L18.173514,20.6371872 C17.4367102,21.1014867 16.6171929,21.4464914 15.74208,21.6450836 L15.74208,21.6838816 C15.74208,22.250812 15.2865869,22.7103999 14.7155617,22.7103999 L13.2844383,22.7103999 C12.7175079,22.7103999 12.25792,22.2549069 12.25792,21.6838816 L12.25792,21.6451225 C11.3827419,21.4465501 10.5631985,21.1015643 9.82639056,20.6372826 L9.79851176,20.6651614 C9.39763143,21.0660417 8.75057147,21.0689372 8.34679566,20.6651614 L7.33483861,19.6532043 C6.93395828,19.252324 6.93106281,18.6052641 7.33483861,18.2014882 L7.36272974,18.1735971 C6.89844376,17.4367718 6.55346214,16.6172258 6.3548889,15.74208 L6.31611836,15.74208 C5.74918796,15.74208 5.28960006,15.2865869 5.28960006,14.7155617 L5.28960006,13.2844383 C5.28960006,12.7175079 5.74509313,12.25792 6.31611836,12.25792 L6.3548889,12.25792 C6.55346214,11.3827742 6.89844376,10.5632282 7.36272974,9.82640289 L7.33483861,9.79851176 C6.93395828,9.39763143 6.93106281,8.75057147 7.33483861,8.34679566 L8.34679566,7.33483861 C8.74767599,6.93395828 9.39473595,6.93106281 9.79851176,7.33483861 L9.82639056,7.36271742 L9.82639056,7.36271742 Z M17.48416,14.0004714 C17.48416,12.0761931 15.924018,10.51584 14,10.51584 C12.075982,10.51584 10.51584,12.0761931 10.51584,14.0004714 C10.51584,15.9247497 12.075982,17.48416 14,17.48416 C15.924018,17.48416 17.48416,15.9247497 17.48416,14.0004714 Z" id="Shape"></path>
                        </g>
                    </g>
                </g>
            </g>
        </g>
    </g>
</svg>