<?xml version="1.0" encoding="utf-8"?>
<!-- Generator: Adobe Illustrator 21.1.0, SVG Export Plug-In . SVG Version: 6.00 Build 0)  -->
<svg version="1.1" id="Layer_1" xmlns="http://www.w3.org/2000/svg" xmlns:xlink="http://www.w3.org/1999/xlink" x="0px" y="0px"
	 viewBox="0 0 419 119" style="enable-background:new 0 0 419 119;" xml:space="preserve">
<style type="text/css">
	.st0{fill:#FF7F69;}
	.st1{fill:#2A82FF;}
	.st2{fill:#FFFFFF;}
</style>
<g>
	<g>
		<g>
			<g>
				<path class="st0" d="M49.2,66.4c-24.6-15.7-25.6-36.6-9.4-53.2c0,0,0,0,0,0C29.2,17.7,24.5,28.1,24,37.4L7.6,53.8
					c-3.1,3.1-3.1,8,0,11.1L37,94.3C52.1,109.4,90.6,92.8,49.2,66.4z"/>
				<path class="st0" d="M83.2,76.9c10,32.2-28.8,53.5-54.1,21.4C59,119.9,86.2,101.3,83.2,76.9z"/>
			</g>
		</g>
		<g>
			<g>
				<path class="st1" d="M72.8,52.2c24.6,15.7,25.6,36.6,9.4,53.2c0,0,0,0,0,0C92.8,101,97.5,90.6,98,81.3l16.4-16.4
					c3.1-3.1,3.1-8,0-11.1L85,24.4C69.9,9.3,31.4,25.9,72.8,52.2z"/>
				<path class="st1" d="M38.8,41.8c-10-32.2,28.8-53.5,54.1-21.4C63-1.2,35.8,17.4,38.8,41.8z"/>
			</g>
		</g>
	</g>
	<g>
		<path class="st2" d="M180.3,67c0,12-8.6,19.5-20,19.5s-20-7.5-20-19.5V35.6h8.8v31.1c0,4.9,2.7,11.4,11.2,11.4
			c8.5,0,11.2-6.5,11.2-11.4V35.6h8.8V67z"/>
		<path class="st2" d="M188.7,51.6h8v5.1h0.1c2.5-4.1,6.9-5.9,11.6-5.9c10.4,0,16.6,7.7,16.6,17.7c0,10-6.7,17.7-16.3,17.7
			c-6.3,0-9.7-2.9-11.4-5.1h-0.2v20.3h-8.4V51.6z M206.7,58.3c-6.2,0-9.9,4.8-9.9,10.1c0,5.3,3.7,10.1,9.9,10.1
			c6.2,0,9.9-4.8,9.9-10.1C216.6,63.2,212.9,58.3,206.7,58.3z"/>
		<path class="st2" d="M232.6,35.6h6.9l18.1,41.7l18.1-41.7h6.6v49.7h-4.6V41.5h-0.1l-18.9,43.8h-2l-19.2-43.8h-0.1v43.8h-4.6V35.6z
			"/>
		<path class="st2" d="M321.2,79.2c-3.3,4.9-8.3,6.9-14,6.9c-9.9,0-16.4-7.1-16.4-17.1c0-9.7,6.7-17,16.2-17
			c10,0,15.2,7.6,15.2,15.2v2.9h-27.2c0,3.5,2.5,12.2,12.3,12.2c4.3,0,8.8-2.2,10.9-5.8L321.2,79.2z M317.9,66.3
			c0-5.8-5-10.5-11.2-10.5c-9.2,0-11.8,8.8-11.8,10.5H317.9z"/>
		<path class="st2" d="M358.1,79.6H358c-2.6,4.5-8.1,6.5-13,6.5c-10,0-17-7.2-17-17c0-9.9,7.1-17,17-17c4.8,0,10.4,2,13,6.5h0.1
			V32.2h4.2v53h-4.2V79.6z M345,55.8c-7.9,0-12.8,6-12.8,13.3c0,7.3,4.9,13.3,12.8,13.3c7.6,0,13.5-6,13.5-13.3
			C358.5,61.8,352.6,55.8,345,55.8z"/>
		<path class="st2" d="M373.7,36.9c1.8,0,3.2,1.4,3.2,3.2c0,1.8-1.4,3.2-3.2,3.2c-1.8,0-3.2-1.4-3.2-3.2
			C370.5,38.3,371.9,36.9,373.7,36.9z M371.6,52.9h4.2v32.4h-4.2V52.9z"/>
		<path class="st2" d="M411.1,71.7c0,6.3,0.1,9.9,0.6,13.6h-3.9c-0.3-1.6-0.4-3.4-0.4-5.3h-0.1c-2.4,4.1-5.9,6.1-11.4,6.1
			c-5.5,0-11.4-2.7-11.4-9.6c0-9.9,11.6-10.9,18-10.9h4.9v-2c0-5.6-3.9-7.9-9.1-7.9c-3.8,0-7,1.2-9.9,3.6l-2.5-2.9
			c3.1-2.9,8.1-4.6,12.3-4.6c7.9,0,12.9,3.5,12.9,11.7V71.7z M402.7,69c-7,0-14,1.8-14,7.3c0,4,3.9,6,7.4,6c9,0,11.3-5.8,11.3-11.2
			V69H402.7z"/>
	</g>
</g>
</svg>
